#!OML:ASF E:\Mandelcareful walks\Project 1\Capture day 1\Session 1\Subject1.ASF
:FULLY-SPECIFIED
:DEGREES
960
root -16.7455 15.3003 -2.67256 -169.955 -2.01063 178.766
lowerback 41.9635 3.67441 -1.17119
upperback 7.28492 1.1817 -0.309331
thorax -11.9233 -0.583816 -0.0139072
lowerneck -30.4396 2.20499 -3.85478
upperneck 11.1644 4.95506 -4.38311
head 8.33063 1.46853 -0.189104
rclavicle -5.76476e-015 9.93923e-015
rhumerus -14.7226 13.8814 -77.0157
rradius 67.8852
rwrist -11.5753
rhand -13.7539 -25.6492
rfingers 7.12502
rthumb 12.3663 -55.2634
lclavicle -5.76476e-015 9.93923e-015
lhumerus -6.67592 -24.8933 66.5236
lradius 70.9905
lwrist 21.8728
lhand -24.8245 -18.8833
lfingers 7.12502
lthumb 1.68102 11.0898
rfemur -43.0492 -17.9779 19.7481
rtibia 66.5129
rfoot -18.7808 2.26001
rtoes -14.9089
lfemur -41.3492 17.0739 -26.6822
ltibia 60.9433
lfoot -24.6961 6.98547
ltoes -9.47586
961
root -16.7923 15.3466 -2.64284 -170.076 -2.25846 178.47
lowerback 42.036 3.196 -0.585259
upperback 7.24974 0.828282 -0.455465
thorax -11.9719 -0.750614 -0.319309
lowerneck -30.2594 1.96639 -4.05626
upperneck 11.0397 4.64534 -4.12535
head 8.2455 1.3519 -0.117543
rclavicle -1.48095e-014 1.5207e-014
rhumerus -15.2247 14.2414 -76.9712
rradius 68.0028
rwrist -12.3385
rhand -14.2502 -25.9079
rfingers 7.12502
rthumb 11.8878 -55.5504
lclavicle -1.48095e-014 1.5207e-014
lhumerus -7.15616 -25.2239 66.7947
lradius 71.3253
lwrist 21.3264
lhand -25.0077 -19.1253
lfingers 7.12502
lthumb 1.50409 10.8492
rfemur -42.0222 -17.7048 19.3832
rtibia 65.6937
rfoot -19.6847 1.71666
rtoes -7.25082
lfemur -41.3621 17.5756 -27.3135
ltibia 61.0548
lfoot -25.1544 5.79661
ltoes -4.03536
962
root -16.8444 15.3168 -2.60432 -169.949 -2.96941 178.069
lowerback 41.7844 2.38657 0.416259
upperback 7.24785 0.275034 -0.651093
thorax -11.8838 -1.00265 -0.80936
lowerneck -30.2604 1.6781 -4.15187
upperneck 11.0334 4.28802 -4.13698
head 8.24166 1.17442 -0.16132
rclavicle -8.34896e-015 1.5704e-014
rhumerus -15.5304 14.4138 -76.9151
rradius 67.9685
rwrist -12.867
rhand -14.4369 -25.8169
rfingers 7.12502
rthumb 11.7078 -55.4697
lclavicle -8.34896e-015 1.5704e-014
lhumerus -7.48238 -25.6551 67.0886
lradius 71.5937
lwrist 20.9101
lhand -25.019 -19.2898
lfingers 7.12502
lthumb 1.49324 10.6847
rfemur -41.2126 -18.2922 19.1578
rtibia 64.5937
rfoot -21.1959 0.585082
rtoes -5.33785
lfemur -42.1469 17.9008 -28.2793
ltibia 61.7235
lfoot -24.6871 4.80494
ltoes -1.36472
963
root -16.8773 15.2842 -2.56625 -169.807 -3.24283 177.697
lowerback 41.517 1.92304 1.06426
upperback 7.23539 -0.00150365 -0.7831
thorax -11.8119 -1.12583 -1.17148
lowerneck -30.0877 1.35955 -4.39301
upperneck 10.8016 3.91041 -4.14143
head 8.13081 0.987952 -0.184712
rclavicle 3.18055e-015 -1.78906e-015
rhumerus -15.8369 14.5252 -76.7874
rradius 67.9415
rwrist -13.3338
rhand -14.3071 -25.7576
rfingers 7.12502
rthumb 11.8329 -55.4033
lclavicle 3.18055e-015 -1.78906e-015
lhumerus -7.76192 -26.1166 67.4334
lradius 71.8753
lwrist 20.5143
lhand -24.8607 -19.4689
lfingers 7.12502
lthumb 1.64615 10.5045
rfemur -40.6571 -17.6245 18.757
rtibia 63.2871
rfoot -22.5383 -0.993491
rtoes -4.00452
lfemur -43.1175 19.2404 -29.2938
ltibia 62.6672
lfoot -22.7949 4.22269
ltoes -9.8563
964
root -16.9045 15.2847 -2.52806 -169.728 -3.30943 177.187
lowerback 41.3401 1.57935 1.45367
upperback 7.20351 -0.262286 -0.98399
thorax -11.7988 -1.23932 -1.48029
lowerneck -29.8017 1.06085 -4.79825
upperneck 10.564 3.56016 -3.76233
head 7.98816 0.860229 -0.0449669
rclavicle 7.35503e-015 -5.1684e-015
rhumerus -16.287 14.7129 -76.7637
rradius 68.0493
rwrist -13.6989
rhand -14.0344 -25.9655
rfingers 7.12502
rthumb 12.0959 -55.5958
lclavicle 7.35503e-015 -5.1684e-015
lhumerus -8.15902 -26.4361 67.7753
lradius 72.1961
lwrist 20.0876
lhand -24.5917 -19.5705
lfingers 7.12502
lthumb 1.90594 10.4007
rfemur -40.0191 -16.3392 17.9485
rtibia 62.1161
rfoot -23.7614 -2.02774
rtoes -0.523966
lfemur -44.214 20.9141 -30.2303
ltibia 64.0972
lfoot -20.8527 2.02257
ltoes -9.44807
965
root -16.9472 15.2996 -2.47782 -169.482 -3.88802 176.442
lowerback 40.9355 0.911579 2.07943
upperback 7.19251 -0.812323 -1.22074
thorax -11.7055 -1.47771 -1.82981
lowerneck -29.5143 0.828484 -4.8517
upperneck 10.32 3.23687 -3.85416
head 7.86405 0.701627 -0.117139
rclavicle -1.78906e-015 -2.18663e-015
rhumerus -16.6503 14.9786 -76.6397
rradius 68.101
rwrist -14.0591
rhand -13.9229 -25.9211
rfingers 7.12502
rthumb 12.2035 -55.5451
lclavicle -1.78906e-015 -2.18663e-015
lhumerus -8.54477 -26.6303 68.2047
lradius 72.5463
lwrist 19.6562
lhand -24.5494 -19.5233
lfingers 7.12502
lthumb 1.94677 10.4476
rfemur -39.7911 -15.9502 17.0671
rtibia 61.2027
rfoot -24.5273 -3.50514
rtoes 0.119703
lfemur -45.7718 21.718 -31.119
ltibia 65.9245
lfoot -18.2208 -0.824075
ltoes -8.37742
966
root -16.9762 15.2909 -2.43306 -169.693 -4.07815 175.916
lowerback 41.0566 0.608015 2.39844
upperback 7.22362 -1.08483 -1.3148
thorax -11.7238 -1.61336 -1.97614
lowerneck -29.263 0.601268 -4.62238
upperneck 10.0463 2.86421 -4.31271
head 7.74806 0.485467 -0.365063
rclavicle 4.37326e-015 2.08724e-014
rhumerus -16.8788 15.2611 -76.4177
rradius 68.1118
rwrist -14.4006
rhand -14.0373 -25.7433
rfingers 7.12502
rthumb 12.0931 -55.3739
lclavicle 4.37326e-015 2.08724e-014
lhumerus -8.92125 -26.7716 68.6974
lradius 72.9581
lwrist 19.3306
lhand -24.303 -19.5872
lfingers 7.12502
lthumb 2.18474 10.3813
rfemur -39.3414 -16.0677 16.7211
rtibia 60.5553
rfoot -24.8002 -5.66127
rtoes -4.21597
lfemur -47.0885 23.2359 -31.297
ltibia 68.0035
lfoot -14.8528 -4.3821
ltoes -9.53772
967
root -17.0111 15.2529 -2.39003 -169.837 -4.24522 175.513
lowerback 41.1477 0.261722 2.8289
upperback 7.16866 -1.33627 -1.43379
thorax -11.8342 -1.73298 -2.21719
lowerneck -29.1227 0.333393 -4.59601
upperneck 9.98658 2.49327 -4.44302
head 7.70974 0.296454 -0.467268
rclavicle -2.06736e-014 -9.54166e-015
rhumerus -17.2551 15.5598 -76.2857
rradius 68.3134
rwrist -14.5295
rhand -14.1846 -25.9289
rfingers 7.12502
rthumb 11.9511 -55.5677
lclavicle -2.06736e-014 -9.54166e-015
lhumerus -9.51495 -26.8556 69.2701
lradius 73.4602
lwrist 18.9377
lhand -23.8048 -19.7651
lfingers 7.12502
lthumb 2.66585 10.198
rfemur -39.1422 -16.6343 16.606
rtibia 60.1685
rfoot -24.9196 -7.52407
rtoes -8.94627
lfemur -48.5398 24.4682 -31.0128
ltibia 70.0452
lfoot -11.4847 -7.89907
ltoes -12.7858
968
root -17.0484 15.2321 -2.34959 -169.896 -4.29794 175.029
lowerback 41.1749 -0.0093647 3.22402
upperback 7.04395 -1.49541 -1.65303
thorax -12.0068 -1.80183 -2.59102
lowerneck -28.9239 0.0235802 -4.62327
upperneck 9.99075 2.07946 -4.48243
head 7.68148 0.0975038 -0.53512
rclavicle 9.14409e-015 3.22031e-014
rhumerus -17.821 15.6943 -76.1688
rradius 68.5358
rwrist -14.52
rhand -14.4097 -25.9114
rfingers 7.12502
rthumb 11.734 -55.5628
lclavicle 9.14409e-015 3.22031e-014
lhumerus -10.2026 -27.1739 69.88
lradius 74.0824
lwrist 18.6372
lhand -23.5662 -19.7829
lfingers 7.12502
lthumb 2.89632 10.1771
rfemur -39.1442 -16.6832 15.9464
rtibia 60.036
rfoot -25.3253 -7.66215
rtoes -7.93518
lfemur -49.5721 25.3033 -30.4283
ltibia 71.6001
lfoot -8.98287 -11.1
ltoes -20.8956
969
root -17.0874 15.2388 -2.31527 -169.946 -4.2801 174.463
lowerback 40.9961 -0.16139 3.45579
upperback 7.02645 -1.60366 -1.90817
thorax -11.9901 -1.84724 -2.94639
lowerneck -28.7791 -0.261528 -4.66832
upperneck 9.96534 1.68079 -4.33577
head 7.64714 -0.0716959 -0.5339
rclavicle -1.23246e-014 -4.53229e-014
rhumerus -18.2283 15.5705 -76.0317
rradius 68.5952
rwrist -14.3655
rhand -14.5315 -25.6116
rfingers 7.12502
rthumb 11.6166 -55.2696
lclavicle -1.23246e-014 -4.53229e-014
lhumerus -10.7012 -27.5416 70.5233
lradius 74.6092
lwrist 18.381
lhand -23.7328 -19.7377
lfingers 7.12502
lthumb 2.73539 10.2245
rfemur -39.2479 -16.0405 14.5958
rtibia 60.1759
rfoot -26.2875 -5.33807
rtoes 2.57399
lfemur -49.9162 25.942 -29.5734
ltibia 72.3583
lfoot -7.54746 -14.1787
ltoes -32.5714
970
root -17.1376 15.2025 -2.28352 -169.921 -4.33074 173.821
lowerback 40.6452 -0.304176 3.54998
upperback 7.07539 -1.75908 -2.0784
thorax -11.8413 -1.91033 -3.121
lowerneck -28.8396 -0.481085 -4.92418
upperneck 9.96509 1.42954 -3.99804
head 7.6484 -0.163881 -0.415073
rclavicle 4.77083e-015 -2.94201e-014
rhumerus -18.351 15.4113 -75.7333
rradius 68.5696
rwrist -14.1527
rhand -14.3018 -25.6515
rfingers 7.12502
rthumb 11.8381 -55.2969
lclavicle 4.77083e-015 -2.94201e-014
lhumerus -11.1234 -27.5964 71.4176
lradius 74.932
lwrist 18.0268
lhand -23.9474 -20.0507
lfingers 7.12502
lthumb 2.52816 9.91402
rfemur -39.4654 -16.2955 13.6982
rtibia 60.4916
rfoot -26.8041 -5.03975
rtoes 3.71976
lfemur -50.1299 26.0674 -28.4619
ltibia 72.5589
lfoot -6.74867 -17.1287
ltoes -38.0033
971
root -17.1916 15.1713 -2.2533 -169.792 -4.01953 173.229
lowerback 40.292 -0.28644 3.31049
upperback 7.02932 -1.8245 -2.16724
thorax -11.7876 -1.92064 -3.07199
lowerneck -28.8997 -0.535851 -4.85887
upperneck 9.92367 1.35957 -4.26702
head 7.64797 -0.231628 -0.528393
rclavicle -9.93923e-015 -1.31198e-014
rhumerus -18.3412 15.4932 -75.3653
rradius 68.4159
rwrist -13.9469
rhand -14.1465 -25.8311
rfingers 7.12502
rthumb 11.9879 -55.4678
lclavicle -9.93923e-015 -1.31198e-014
lhumerus -11.8553 -27.1683 72.54
lradius 75.2861
lwrist 17.8622
lhand -23.8355 -20.5984
lfingers 7.12502
lthumb 2.63625 9.36505
rfemur -40.0455 -16.5303 12.8896
rtibia 60.9472
rfoot -26.7051 -4.91197
rtoes 2.41435
lfemur -50.0478 26.11 -27.1313
ltibia 71.966
lfoot -7.9935 -15.7197
ltoes -35.9296
972
root -17.2457 15.1391 -2.22804 -169.726 -3.35267 172.759
lowerback 40.0616 -0.0789085 2.82056
upperback 6.93633 -1.76403 -2.29482
thorax -11.8173 -1.87174 -2.98497
lowerneck -28.3882 -0.379398 -4.55202
upperneck 9.36284 1.42594 -4.63676
head 7.38835 -0.211953 -0.686989
rclavicle -1.70955e-014 -9.93923e-015
rhumerus -18.358 15.4707 -75.2449
rradius 68.05
rwrist -13.7016
rhand -14.2127 -25.7955
rfingers 7.12502
rthumb 11.924 -55.4359
lclavicle -1.70955e-014 -9.93923e-015
lhumerus -12.897 -26.7979 73.5143
lradius 75.9893
lwrist 17.9955
lhand -23.3664 -20.7002
lfingers 7.12502
lthumb 3.08929 9.2572
rfemur -40.6589 -16.3476 12.1752
rtibia 61.41
rfoot -26.4212 -5.02222
rtoes 0.919618
lfemur -49.4101 26.2611 -25.4795
ltibia 70.6768
lfoot -9.92597 -12.8173
ltoes -35.0978
973
root -17.2985 15.1227 -2.20921 -169.803 -2.61022 172.382
lowerback 40.0278 0.279494 2.26924
upperback 6.85814 -1.55656 -2.42015
thorax -11.8832 -1.76307 -2.92234
lowerneck -28.1985 -0.339868 -4.15257
upperneck 9.11356 1.33902 -4.90518
head 7.28153 -0.259128 -0.849658
rclavicle 1.47101e-014 2.70347e-014
rhumerus -18.5034 14.9608 -75.3118
rradius 67.6566
rwrist -13.2384
rhand -14.0961 -25.876
rfingers 7.12502
rthumb 12.0364 -55.5099
lclavicle 1.47101e-014 2.70347e-014
lhumerus -13.9843 -26.8771 74.3723
lradius 76.9447
lwrist 18.1642
lhand -23.0396 -20.5304
lfingers 7.12502
lthumb 3.40489 9.42214
rfemur -40.9811 -15.7285 11.4428
rtibia 61.7664
rfoot -26.4763 -5.02323
rtoes 1.40008
lfemur -48.0847 26.1321 -23.3315
ltibia 68.622
lfoot -11.4089 -9.16413
ltoes -33.8823
